<svg xmlns="http://www.w3.org/2000/svg" width="28.088" height="33.479" viewBox="0 0 28.088 33.479">
  <path id="Path_9676" data-name="Path 9676" d="M956.624,1979.577a61.324,61.324,0,0,0-5.014-6.075c-1.329-1.094-2.3-2.963-4.568-2.963s-8.578-2.438-12.062-6.774-5.6-11.948-5.6-11.948-.55-3.227-.822-4.3,1.955-1.984,4.23-.989,5.6,2.7,6.609,2.7a8.49,8.49,0,0,1,4.693,1.919,46.138,46.138,0,0,1,5.716,6.448,32.1,32.1,0,0,0,2.436,3.259c.482.724,1.663,9.6,2.161,11.872A72.03,72.03,0,0,0,956.624,1979.577Z" transform="translate(-928.536 -1946.098)" fill="#aebeb1"/>
</svg>
